<?xml version="1.0" encoding="utf-8"?>
<!-- Generator: Adobe Illustrator 17.1.0, SVG Export Plug-In . SVG Version: 6.00 Build 0)  -->
<!DOCTYPE svg PUBLIC "-//W3C//DTD SVG 1.1//EN" "http://www.w3.org/Graphics/SVG/1.1/DTD/svg11.dtd">
<svg version="1.1" id="Layer_1" xmlns="http://www.w3.org/2000/svg" xmlns:xlink="http://www.w3.org/1999/xlink" x="0px" y="0px"
	 viewBox="0 0 529 243" enable-background="new 0 0 529 243" xml:space="preserve">
<polygon fill="#858E91" points="141.4,173.5 161.1,173.5 161.1,176.4 152.9,176.4 152.9,198.8 149.6,198.8 149.6,176.4 141.4,176.4 
	"/>
<g>
	<defs>
		<rect id="SVGID_1_" width="529" height="243"/>
	</defs>
	<clipPath id="SVGID_2_">
		<use xlink:href="#SVGID_1_"  overflow="visible"/>
	</clipPath>
	<path clip-path="url(#SVGID_2_)" fill="#858E91" d="M179.1,199c-1.8,0-3.3-0.2-4.7-0.6c-1.3-0.4-2.4-1.1-3.3-1.9
		c-0.9-0.8-1.5-1.9-1.9-3.1c-0.4-1.2-0.6-2.7-0.6-4.2c0-2,0.4-3.7,1.1-5.2c0.7-1.5,1.8-2.7,3.1-3.5c1.3-0.8,2.9-1.2,4.7-1.2
		c2.1,0,3.7,0.4,5,1.3c1.3,0.8,2.2,2,2.7,3.5c0.6,1.5,0.8,3.3,0.7,5.3l0,1h-15v-2.7h11.6v-0.3c0-1.8-0.4-3.1-1.3-4
		c-0.8-0.9-2.1-1.4-3.8-1.4c-1,0-1.9,0.2-2.7,0.6c-0.8,0.4-1.5,1.1-2,2.1c-0.5,1-0.8,2.4-0.8,4.1v0.2c0,1.8,0.3,3.2,0.9,4.2
		c0.6,1,1.5,1.8,2.6,2.2c1.1,0.4,2.4,0.6,3.8,0.6c1.2,0,2.2-0.1,3.1-0.3c0.8-0.2,1.5-0.5,2-0.8h0.3v2.9c-0.6,0.3-1.3,0.5-2.2,0.7
		C181.5,198.9,180.4,199,179.1,199"/>
	<path clip-path="url(#SVGID_2_)" fill="#858E91" d="M197.7,189.1c0-2.1,0.4-3.9,1.2-5.3c0.8-1.5,2-2.6,3.5-3.4
		c1.5-0.8,3.4-1.2,5.5-1.2c1.7,0,3.2,0.3,4.3,0.8v2.9H212c-0.5-0.3-1.1-0.5-1.8-0.6c-0.7-0.2-1.4-0.2-2.3-0.2
		c-2.1,0-3.8,0.6-5.1,1.8c-1.3,1.2-1.9,2.9-1.9,5.3c0,2.3,0.6,4.1,1.9,5.3c1.3,1.2,2.9,1.8,5.1,1.8c0.8,0,1.6-0.1,2.3-0.2
		c0.7-0.2,1.3-0.4,1.8-0.6h0.3v2.9c-1.2,0.5-2.6,0.8-4.3,0.8c-2.2,0-4-0.4-5.5-1.2c-1.5-0.8-2.7-1.9-3.5-3.4
		C198.1,193,197.7,191.2,197.7,189.1"/>
	<path clip-path="url(#SVGID_2_)" fill="#858E91" d="M225,198.8v-20.6c0-0.5,0-1.1,0-1.8c0-0.7,0-1.5-0.1-2.2c0-0.7-0.1-1.3-0.2-1.7
		l0.1-0.3h3.4v9.5l-0.7-1c0.7-0.4,1.6-0.7,2.5-0.9c0.9-0.3,2-0.4,3.1-0.4c1,0,1.9,0.1,2.8,0.4c0.9,0.2,1.8,0.7,2.5,1.3
		c0.7,0.6,1.3,1.4,1.7,2.5c0.4,1.1,0.7,2.4,0.7,4.1v11.2h-3.2v-10.8c0-1.5-0.2-2.7-0.7-3.5c-0.4-0.8-1-1.4-1.8-1.7
		c-0.8-0.3-1.7-0.5-2.7-0.5c-0.6,0-1.2,0.1-1.8,0.2c-0.6,0.1-1.1,0.3-1.7,0.5c-0.5,0.2-1,0.3-1.4,0.5l0.7-1.6v17H225z"/>
	<path clip-path="url(#SVGID_2_)" fill="#858E91" d="M255.5,198.8v-12.1c0-0.5,0-1.1,0-1.8c0-0.7,0-1.5-0.1-2.2
		c0-0.7-0.1-1.3-0.2-1.7l0.1-0.3c0.6-0.2,1.4-0.5,2.3-0.7c0.9-0.2,1.9-0.4,2.8-0.5c1-0.1,1.8-0.2,2.5-0.2c1.2,0,2.3,0.1,3.3,0.4
		c1,0.2,1.9,0.7,2.7,1.3c0.8,0.6,1.4,1.4,1.8,2.5c0.4,1.1,0.7,2.4,0.7,4.1v11.2h-3.2v-10.9c0-1.5-0.2-2.7-0.7-3.5
		c-0.4-0.8-1.1-1.4-1.9-1.7c-0.8-0.3-1.8-0.5-3-0.5c-0.7,0-1.6,0.1-2.4,0.2c-0.8,0.2-1.6,0.4-2.2,0.6l0.6-1c0.1,0.4,0.2,0.8,0.2,1.3
		c0,0.5,0.1,1.1,0.1,1.6v13.9H255.5z"/>
	<path clip-path="url(#SVGID_2_)" fill="#858E91" d="M284.5,189.1c0-2.1,0.4-3.9,1.1-5.3c0.7-1.5,1.8-2.6,3.1-3.4
		c1.3-0.8,2.9-1.2,4.6-1.2c1.7,0,3.3,0.4,4.6,1.2c1.3,0.8,2.4,1.9,3.1,3.4c0.7,1.5,1.1,3.3,1.1,5.3c0,2.1-0.4,3.9-1.1,5.3
		c-0.7,1.5-1.8,2.6-3.1,3.4c-1.3,0.8-2.8,1.2-4.6,1.2c-1.8,0-3.3-0.4-4.6-1.2c-1.3-0.8-2.3-1.9-3.1-3.4
		C284.8,193,284.5,191.2,284.5,189.1 M287.8,189.1c0,2.3,0.5,4.1,1.4,5.3c1,1.2,2.3,1.8,4.1,1.8c1.8,0,3.1-0.6,4-1.8
		c1-1.2,1.4-3,1.4-5.3c0-2.4-0.5-4.1-1.4-5.3c-0.9-1.2-2.3-1.8-4-1.8c-1.8,0-3.1,0.6-4.1,1.8C288.2,185,287.8,186.8,287.8,189.1"/>
	<path clip-path="url(#SVGID_2_)" fill="#858E91" d="M315.2,198.8v-20.6c0-0.5,0-1.1,0-1.8c0-0.7,0-1.5-0.1-2.2
		c0-0.7-0.1-1.3-0.2-1.7l0.1-0.3h3.4v26.7H315.2z"/>
	<path clip-path="url(#SVGID_2_)" fill="#858E91" d="M331.7,189.1c0-2.1,0.4-3.9,1.1-5.3c0.7-1.5,1.8-2.6,3.1-3.4
		c1.3-0.8,2.9-1.2,4.6-1.2c1.7,0,3.3,0.4,4.6,1.2c1.3,0.8,2.4,1.9,3.1,3.4c0.7,1.5,1.1,3.3,1.1,5.3c0,2.1-0.4,3.9-1.1,5.3
		c-0.7,1.5-1.8,2.6-3.1,3.4c-1.3,0.8-2.8,1.2-4.6,1.2c-1.8,0-3.3-0.4-4.6-1.2c-1.3-0.8-2.3-1.9-3.1-3.4
		C332.1,193,331.7,191.2,331.7,189.1 M335,189.1c0,2.3,0.5,4.1,1.4,5.3c1,1.2,2.3,1.8,4.1,1.8c1.8,0,3.1-0.6,4-1.8
		c1-1.2,1.4-3,1.4-5.3c0-2.4-0.5-4.1-1.4-5.3c-0.9-1.2-2.3-1.8-4-1.8c-1.8,0-3.1,0.6-4.1,1.8C335.5,185,335,186.8,335,189.1"/>
	<path clip-path="url(#SVGID_2_)" fill="#858E91" d="M368.1,207.2c-0.8,0-1.8-0.1-2.8-0.2c-1-0.1-1.9-0.4-2.6-0.7v-2.9h0.3
		c0.8,0.4,1.6,0.6,2.5,0.7c0.9,0.2,1.8,0.2,2.5,0.2c1.5,0,2.7-0.2,3.6-0.7c0.9-0.4,1.6-1.1,2-2c0.4-0.9,0.6-2.1,0.6-3.5v-13.5
		c0-0.6,0-1.1,0-1.6c0-0.5,0.1-1,0.2-1.4l0.6,1c-0.5-0.2-1.1-0.3-1.8-0.5c-0.6-0.1-1.3-0.2-2.1-0.2c-1.5,0-2.8,0.3-3.9,0.8
		c-1,0.5-1.8,1.3-2.3,2.4c-0.5,1-0.8,2.3-0.8,3.9c0,2.2,0.6,3.9,1.7,5c1.2,1.1,2.9,1.7,5.2,1.7c0.7,0,1.3,0,1.9-0.1
		c0.6-0.1,1.2-0.3,1.9-0.6l-0.1,2.9c-0.8,0.2-1.5,0.3-2.1,0.4c-0.6,0.1-1.2,0.1-1.8,0.1c-2,0-3.8-0.4-5.3-1.1
		c-1.5-0.7-2.7-1.8-3.5-3.2c-0.8-1.4-1.3-3.2-1.3-5.3c0-1.5,0.2-2.9,0.7-4.1c0.5-1.2,1.1-2.2,2-3.1c0.9-0.9,2-1.5,3.2-2
		c1.3-0.5,2.7-0.7,4.3-0.7c1.1,0,2.2,0.1,3.3,0.4c1.2,0.2,2.2,0.5,3.1,0.9l0.1,0.3c-0.1,0.4-0.2,1-0.2,1.7c0,0.7,0,1.5-0.1,2.2v1.8
		v11.6c0,1.9-0.4,3.5-1.1,4.8c-0.7,1.4-1.8,2.4-3.2,3.1C371.8,206.8,370.1,207.2,368.1,207.2"/>
	<path clip-path="url(#SVGID_2_)" fill="#858E91" d="M393.6,206.9v-0.4l4.3-10.7l6.2-16.1h3.2v0.4l-10.7,26.8H393.6z M397.2,199.5
		l-7.7-19.4v-0.4h3.4l6.2,16.2L397.2,199.5z"/>
	<polygon clip-path="url(#SVGID_2_)" fill="#858E91" points="436.3,198.8 436.3,173.5 439.7,173.5 439.7,195.8 450.5,195.8 
		450.5,198.8 	"/>
	<path clip-path="url(#SVGID_2_)" fill="#858E91" d="M470,199c-1.6,0-2.9-0.3-3.9-0.8c-1-0.5-1.7-1.3-2.1-2.2
		c-0.4-1-0.7-2.1-0.7-3.3v-18.2h3.2v18c0,1.3,0.3,2.3,0.9,2.9c0.6,0.6,1.5,0.9,2.8,0.9c0.5,0,1,0,1.4-0.1c0.5-0.1,0.9-0.3,1.2-0.4
		h0.3v2.7c-0.4,0.2-0.8,0.3-1.3,0.4C471.3,199,470.7,199,470,199 M460.4,179.7H472v2.8h-11.6V179.7z"/>
	<path clip-path="url(#SVGID_2_)" fill="#858E91" d="M493.5,199.2c-2.1,0-3.9-0.4-5.4-1.2c-1.4-0.8-2.6-2-3.3-3.5
		c-0.7-1.5-1.1-3.3-1.1-5.4c0-2.1,0.4-3.9,1.3-5.3c0.8-1.5,2-2.6,3.5-3.4c1.5-0.8,3.3-1.2,5.3-1.2c0.8,0,1.5,0.1,2.2,0.2
		c0.7,0.1,1.2,0.3,1.6,0.5l-0.1,2.8c-0.3-0.1-0.7-0.2-1.3-0.4c-0.6-0.2-1.3-0.2-2.1-0.2c-2.3,0-4,0.6-5.2,1.8
		c-1.2,1.2-1.8,3-1.8,5.3c0,1.7,0.3,3,0.8,4.1c0.5,1.1,1.3,1.8,2.3,2.3c1,0.5,2.2,0.8,3.7,0.8c0.8,0,1.6-0.1,2.2-0.2
		c0.7-0.2,1.3-0.4,1.8-0.6l-0.6,1c-0.1-0.4-0.2-0.9-0.2-1.4c0-0.6-0.1-1.1-0.1-1.7v-15.3c0-0.5,0-1.1,0-1.8c0-0.7,0-1.5-0.1-2.2
		c0-0.7-0.1-1.3-0.2-1.7l0.1-0.3h3.4v19.6v1.8c0,0.7,0,1.5,0.1,2.2c0,0.7,0.1,1.3,0.2,1.7l-0.1,0.3c-1,0.4-2,0.7-3.2,1
		C496.1,199,494.9,199.2,493.5,199.2"/>
	<path clip-path="url(#SVGID_2_)" fill="#858E91" d="M516.6,199c-0.6,0-1.2-0.2-1.6-0.6c-0.4-0.4-0.6-0.9-0.6-1.6
		c0-0.7,0.2-1.3,0.6-1.6c0.4-0.4,1-0.6,1.6-0.6c0.6,0,1.2,0.2,1.6,0.6c0.4,0.4,0.7,0.9,0.7,1.6c0,0.7-0.2,1.3-0.7,1.6
		C517.7,198.8,517.2,199,516.6,199"/>
	<rect x="174.6" y="52.7" clip-path="url(#SVGID_2_)" width="15.6" height="96.8"/>
	<path clip-path="url(#SVGID_2_)" d="M210.7,149.5v-46.1c0-1.8,0-4.1-0.1-6.9c0-2.9-0.1-5.7-0.3-8.5c-0.1-2.8-0.3-5-0.7-6.6l0.3-1.1
		c2.5-1,5.6-1.9,9.1-2.8c3.7-0.9,7.4-1.6,11.2-2.2c3.9-0.5,7.3-0.8,10.4-0.8c4.6,0,8.8,0.5,12.8,1.5c3.9,0.9,7.5,2.6,10.6,5
		c3.1,2.3,5.6,5.6,7.3,9.8c1.8,4.1,2.7,9.4,2.7,15.9v42.8h-15.1v-41.8c0-5.5-0.8-9.7-2.4-12.6c-1.5-3-3.8-5-6.9-6.1
		c-3-1.2-6.5-1.7-10.6-1.7c-2.8,0-5.7,0.3-8.7,0.9c-3,0.6-5.7,1.3-8.1,2.2l2.4-4.2c0.4,1.3,0.8,3,0.9,5.1c0.2,2.1,0.3,4.3,0.3,6.7
		v51.5H210.7z"/>
	<path clip-path="url(#SVGID_2_)" d="M295,149.5V73c0-5.5,1-10.1,3.1-14c2.2-3.9,5.2-6.8,9.3-8.9c4-2.2,8.9-3.2,14.7-3.2
		c1.3,0,2.7,0.1,4.2,0.3c1.4,0.2,2.8,0.4,4.2,0.8v12.4h-1.2c-2.2-0.7-4.4-1.1-6.6-1.1c-4.6,0-7.8,1.1-9.7,3.4
		c-1.9,2.2-2.8,5.5-2.8,10.1v76.8H295z M283.6,76.2h42.6v12.6h-42.6V76.2z M341.4,149.5V70.3c0-1.8,0-4.1-0.1-7
		c0-2.9-0.1-5.6-0.3-8.3c-0.1-2.8-0.3-5-0.7-6.6l0.3-1.1h15.9v102.2H341.4z"/>
	<path clip-path="url(#SVGID_2_)" d="M409.9,151.1c-4.7,0-9.1-0.5-13.3-1.5c-4.1-0.9-7.8-2.6-10.9-5c-3.1-2.4-5.6-5.7-7.4-9.8
		c-1.8-4.2-2.7-9.5-2.7-15.9V99.2c0-1.8,0-4.1-0.1-6.9c-0.1-2.9-0.2-5.7-0.4-8.5c-0.1-2.8-0.3-5-0.7-6.6l0.3-1.1h16v41.7
		c0,5.6,0.8,9.8,2.4,12.8c1.6,3,4,5,7.1,6.2c3.1,1.1,6.9,1.6,11.2,1.6c2.8,0,5.6-0.3,8.3-0.8c2.9-0.5,5.4-1.1,7.5-1.6l-2.6,3.6
		c-0.4-1.3-0.6-2.9-0.8-4.8c-0.1-2-0.1-4.1-0.1-6.3V99.2c0-1.8,0-4.1-0.1-6.9c-0.1-2.9-0.2-5.7-0.4-8.5c-0.1-2.8-0.3-5-0.7-6.6
		l0.3-1.1h16v46.5v7c0.1,2.8,0.2,5.6,0.3,8.3c0.2,2.8,0.4,5,0.8,6.6l-0.3,1.1c-2.5,1-5.6,1.9-9.1,2.7c-3.6,0.8-7.2,1.4-10.9,1.9
		C415.9,150.8,412.7,151.1,409.9,151.1"/>
	<path clip-path="url(#SVGID_2_)" d="M501.9,149.5l-21.8-30.4l-30.8-41.7v-1.2h16.5l21.8,30.4l30.8,41.7v1.2H501.9z M450.3,149.5
		v-1.2l30.8-40.6L503,76.2h15.9v1.2L488.1,118l-21.9,31.5H450.3z"/>
	<path clip-path="url(#SVGID_2_)" fill="#E26A21" d="M24.4,99.3c1.3-3,2.4-5.9,3.7-8.7c0.8-1.7,0.2-2.9-1.1-4
		c-3-2.5-5.9-5.2-8.9-7.7c-1.7-1.4-1.9-2.5-0.3-4c9.1-9,18.1-18.1,27.1-27.2c1.5-1.5,2.8-1.4,4.2,0.1c2.5,2.7,5.1,5.4,7.6,8.2
		c1.3,1.5,2.6,1.9,4.3,0.9c1.3-0.8,2.8-1.3,4.2-1.9c4.9-2.1,4.9-2.1,4.5-7.6c-0.2-3.1-0.4-6.2-0.7-9.3c-0.1-1.6,0.4-2.4,2-2.2
		c10.9,1.1,75,2.2,85.8,3.3c0.1,0,0.4,0,0.2,0.3c-1.3,1.5-56.1,1.9-58.3,2.3c-6.1,0.5-12.1,1.3-18.2,1.8c-2.6,0.2-3.3,1.3-3,3.8
		c0.4,3.3,0.4,6.6,0.7,9.9c0.1,1.7-0.5,2.4-2.1,2.8c-6.1,1.5-11.8,3.8-17.1,7c-1.6,0.9-2.8,0.8-4.1-0.6c-2-2.2-4.2-4.3-6.2-6.5
		c-1.5-1.6-2.8-1.7-4.4-0.1c-4.8,5-9.7,9.9-14.6,14.7c-1.6,1.6-1.5,2.7,0.1,4.1c2.3,1.9,4.5,4,6.8,5.9c1.7,1.4,2,2.7,1,4.8
		c-2.7,5.2-5.1,10.6-6.1,16.5c-0.3,1.7-1.1,2.4-2.9,2.3c-3.6-0.2-7.2-0.1-10.8-0.2c-1.9-0.1-2.5,0.7-2.5,2.5
		c0.1,7.2,0.1,14.5,0,21.7c0,2.5,1.1,2.9,3.3,2.7c3.6-0.3,7.2-0.4,10.8-0.8c1.8-0.2,2.9,0.3,3.4,2.2c1.5,5.4,4,10.4,7,15.1
		c1.1,1.7,0.9,2.9-0.6,4.3c-2.9,2.6-5.6,5.5-8.5,8.2c-1.7,1.6-1.6,2.8,0,4.3c4.9,4.8,9.7,9.6,14.5,14.4c1.7,1.8,3,1.6,4.6-0.2
		c2.7-3.1,5.5-6.1,8.2-9.3c1.4-1.7,2.8-2.1,4.8-0.9c4.1,2.4,8.7,3.9,13.3,4.9c2.4,0.6,3.4,1.7,3.2,4.3c-0.3,4.4-0.3,8.9-0.6,13.3
		c-0.2,2.4,0.6,3.3,3,3.5c8.1,0.7,13.6,1.6,21.7,2.4c1,0.1,2,0.3,2.9,0.8c-0.2,0.6-1,0.9-1.6,1c-11.4,1.2-20.2,2.2-31.5,3.4
		c-2.1,0.2-3-0.5-2.9-2.7c0.2-5.5,0.3-10.9,0.5-16.4c0.1-1.7-0.5-2.5-2.1-3.2c-6.4-2.5-6.4-2.6-11,2.3c-2.6,2.8-5.1,5.6-7.6,8.6
		c-1.5,1.8-2.8,2-4.6,0.2c-8.9-9-17.9-18-26.9-26.9c-1.4-1.4-1.4-2.4,0.1-3.8c3.3-3.1,6.5-6.4,9.8-9.5c1.5-1.4,1.8-2.6,0.9-4.6
		c-3.5-7.4-3.4-7.5-11.7-6.9c-2.7,0.2-5.4,0.3-8,0.5c-1.8,0.1-2.6-0.5-2.6-2.4c0-13,0-26,0-39c0-1.9,0.8-2.4,2.6-2.5
		C14.6,99.2,19.4,100.3,24.4,99.3"/>
	<path clip-path="url(#SVGID_2_)" fill="#858E91" d="M103.3,129.9c-2.3,18-8.7,29.5-17.9,33.8c-3.3,1.6-6.7,1.3-10-0.1
		c-0.9-0.4-1.3-1.2-1.2-2.9c0.2-3.9,0.1-7.7,0-11.6c-0.1-1.6,0.4-2,1.1-2c1.5,0,3.1-0.1,4.6-0.1c0.6,0,1.1-0.2,1.5-1
		c0.8-1.5,1.9-1.5,2.6,0c0.7,1.5,0.7,3.2,0.1,4.7c-0.7,1.6-1.5,1.7-2.5,0.6c-1.7-2-3.5-0.9-5.3-1.1c-0.4,0-0.5,0.8-0.5,1.4
		c0,1.2,0,2.4,0,3.6c0,4.5,0,4.5,2.4,4.9c10.2,1.7,20.6-11.2,23.3-30.3c1.7-12,1.6-23.5-1.9-34.1c-0.2-0.6-0.6-1.2-0.5-2.2
		c0.5,0,0.7,0.9,1,1.5c2.5,6.7,3.4,14.2,3.5,22.5C103.6,121.5,104,125.7,103.3,129.9 M83.5,148.8c0-1-0.1-1.7-0.7-1.8
		c-0.4-0.1-0.7,0.2-0.8,1c-0.1,0.8,0,1.4,0.4,1.8C82.8,150.3,83.2,150.1,83.5,148.8"/>
	<path clip-path="url(#SVGID_2_)" fill="#E26A21" d="M84.4,84.6c-3.1-1.6-6.1-2.1-9.1-1.1c-0.9,0.3-1.2,1.1-1.2,2.8
		c0,5.7,0,5.9,3,5.3c1-0.2,1.9-0.2,2.8-1.4c0.7-1,1.5-0.3,2,1c0.5,1.4,0.5,2.8-0.1,4.1c-0.5,1.2-1.3,1.8-1.9,0.8
		c-1.1-1.7-2.3-1.4-3.5-1.4c-4.3,0.1-3.7,1.4-3.9-7.3c0-1.5,0-3-0.1-4.5c-0.1-2,0.4-2.8,1.3-3.3c9.9-5.4,19.7,5.1,23.4,23.9
		c2.2,11.2,1.8,22-0.9,32.6c-0.3,1.4-0.6,2.8-1.5,3.6c3.2-13,3.4-26-0.4-38.6C92,93.1,89.1,87.6,84.4,84.6 M80.6,92.1
		c-0.7-0.1-0.8,0.6-0.6,1.7c0.1,0.5,0.3,0.8,0.6,0.6C81.1,93.9,81.2,93.1,80.6,92.1"/>
	<path clip-path="url(#SVGID_2_)" fill="#858E91" d="M81.2,142.9c-1.1-1-2.2-1.3-3.6-1.3c-3.9,0.1-7.9,0.1-11.9,0.2
		c-1.6,0-2.4-0.4-2.3-2.1c0.1-1.6,0-3.2-0.1-4.7c-0.1-1.8-0.8-2.8-2.8-2.7c-3.4,0.1-6.8,0.1-10.4,0.2c0.3,3.4,1.8,6.2,3,9.2
		c-1.6,0.7-3,0.8-3.7-1c-1.2-2.9-2.2-5.9-3-9c-0.4-1.6,0.2-2.2,1.8-2.2c5.3-0.1,10.6-0.1,15.9-0.3c1.6,0,2.1,0.6,2.2,2.1
		c0,1.7,0.1,3.5,0.1,5.2c0,1.5,0.6,2.3,2.2,2.3c3.2-0.1,6.5-0.2,9.7-0.2c0.9,0,1.7-0.2,2.4-0.9c1.5-1.4,3.3-1.7,4.9-0.3
		c1.4,1.2,1.7,3,0.7,4.5C85.1,143.8,83.3,144.1,81.2,142.9 M84.5,139.1c-0.7-0.7-1.5-0.8-2.3-0.1c-0.5,0.5-0.5,1.1-0.2,1.7
		c0.4,0.7,1,1.1,1.8,0.8C84.7,141.1,85,140.4,84.5,139.1"/>
	<path clip-path="url(#SVGID_2_)" fill="#E26A21" d="M48.1,112.2c-1.7-0.6-1.4-1.8-1.2-2.8c0.4-2.4,1.2-4.7,2-7.1
		c0.6-1.8,1.7-2.3,3.6-1.6c-0.2,2.1-1.6,3.7-1.9,5.7c-0.5,2.6-0.2,3,2.3,2.9c2.2-0.1,4.4-0.3,6.6-0.3c1.6,0,2.3-0.9,2.3-2.4
		c0-1.4,0.1-2.9,0-4.3c-0.2-1.9,0.8-2.5,2.5-2.4c2.7,0.1,5.4,0.1,8-0.1c2.1-0.1,4.2,0,6.1-1.5c1.2-1,2.9-0.7,4,0.6
		c1.1,1.3,1.3,2.8,0.2,4.1c-1.1,1.3-2.6,1.7-4,0.9c-3.9-2.2-8-1-12-1.1c-1.3,0-2,0.8-1.9,2.2c0.1,1.3-0.1,2.5,0.1,3.8
		c0.3,2.2-0.6,3-2.7,3C57.5,111.9,52.9,112.1,48.1,112.2 M79.4,102.1c1,0.4,1.7,0.2,1.8-0.9c0.1-0.7-0.4-1.3-1.1-1.2
		C79,100.1,78.8,100.9,79.4,102.1"/>
	<path clip-path="url(#SVGID_2_)" fill="#858E91" d="M61.9,122.9c-4.7,0.1-9.2,0.2-13.8,0.3c-1.1,0-2.1,0-2.2-1.5
		c0-1.5,1-1.6,2.1-1.6c5.5-0.1,10.9-0.2,16.4-0.3c1.3,0,2.4-0.2,3.4-1.2c1.5-1.4,3.2-1.3,4.7,0.1c1.4,1.3,1.6,2.9,0.5,4.5
		c-1.2,1.7-3.1,2.1-4.6,1C66.4,122.6,64.3,122.8,61.9,122.9 M68.8,120.4c-0.4,1-0.2,1.8,0.9,2.3c0.7,0.3,1.2,0,1.6-0.5
		c0.5-0.7,0.6-1.5-0.1-2.1C70.5,119.3,69.7,119.3,68.8,120.4"/>
	<path clip-path="url(#SVGID_2_)" fill="#858E91" d="M66.9,154.8c1.1,0.6,2.1,1.1,3.1,1.5c2.7,1.2,3,1.9,2.1,4.9
		c-6-0.7-18.3-11.1-19.6-16.1c1.4-0.9,2.5-0.4,3.5,0.7C59.1,149.4,62.9,152.2,66.9,154.8"/>
	<path clip-path="url(#SVGID_2_)" fill="#E26A21" d="M65.5,83.6c0.5-0.3,0.8-0.5,1.2-0.6c0.9-0.3,2-1.7,2.8-0.2
		c0.8,1.4,0.5,3-1.3,3.8c-3.3,1.5-6.1,3.6-8.8,5.9c-1.5,1.3-2.8,2.8-4.2,4.2c-0.8,0.8-1.7,1.7-2.8,0.7c-1-0.9,0-1.8,0.6-2.5
		C56.3,90.4,60.4,86.6,65.5,83.6"/>
	<polygon clip-path="url(#SVGID_2_)" fill="#E26A21" points="128.9,41.9 107.5,126.7 127,126.7 106.4,200 155.1,95.7 138.3,95.7 
		156.8,40.7 	"/>
</g>
</svg>
